<?xml version="1.0" encoding="UTF-8" standalone="no"?>
<!-- Created with Inkscape (http://www.inkscape.org/) -->

<svg
   width="30.427084mm"
   height="13.188117mm"
   viewBox="0 0 30.427083 13.188117"
   version="1.1"
   id="svg5"
   xml:space="preserve"
   xmlns="http://www.w3.org/2000/svg"
   xmlns:svg="http://www.w3.org/2000/svg"><defs
     id="defs2"><pattern
       id="WMFhbasepattern"
       patternUnits="userSpaceOnUse"
       width="6"
       height="6"
       x="0"
       y="0" /></defs><g
     id="layer1"
     transform="matrix(0.1726727,0,0,0.1726727,-2.6216856,-13.883427)"><path
       style="fill:#ffffff;fill-opacity:1;fill-rule:nonzero;stroke:none;stroke-width:0.264583"
       d="m 103.20103,140.90453 v -0.26458 -0.17639 0 l 0.44097,-1.32292 v 0 l 0.44098,-1.32292 0.0882,-0.0882 3.43958,-6.52639 -12.699997,0.35278 -16.051387,15.43403 v 0 l -1.411113,1.41111 -1.322917,1.05833 -1.23472,0.97014 -1.14653,0.70555 v 0 l -0.970137,0.52917 -0.881946,0.44097 -0.79375,0.26459 -0.79375,0.17639 v 0 h 63.147227 v 0 l -0.61736,-0.97014 -0.52917,-0.97014 -0.44097,-1.05834 -0.44098,-0.97013 -0.26458,-1.05834 -0.26458,-0.97014 -0.26459,-1.05833 -0.0882,-1.05833 -0.0882,-0.26459 v 0 -0.88194 0 -1.05833 0 -1.41112 l 0.0882,-1.32291 0.17639,-1.32292 0.26458,-1.23472 v 0 l 0.52917,-2.20486 0.44097,-1.76389 0.17639,-0.44097 v -0.0882 0 l 0.17639,-0.26458 v 0 l 1.23472,-2.73403 1.32292,-2.64583 v 0 l -4.7625,-1.49931 v 0 l -0.97014,1.5875 v 0 l -1.05833,2.02847 -0.44098,0.88195 -6.17361,0.52917 -3.35139,5.82083 v 0 l 0.0882,-0.0882 v 0 l 0.97014,-0.61736 0.97014,-0.70555 1.05833,-0.79375 1.14653,-0.97014 1.41111,-1.32292 3.88055,5.11528 -1.14652,1.05833 v 0 l -2.82223,2.73403 -2.55764,2.29306 -1.23472,0.97014 -1.14653,0.88194 -1.14652,0.70556 -1.05834,0.61736 v 0 l -2.02847,1.05833 -0.97014,0.44097 -0.97014,0.35278 -0.88194,0.26458 -0.79375,0.17639 -0.79375,0.0882 -0.79375,0.0882 v 0 l -0.88195,-0.0882 -0.88194,-0.17639 -0.70556,-0.17639 -0.61736,-0.26458 -0.52916,-0.35278 -0.44098,-0.35278 -0.35277,-0.35278 -0.35278,-0.35278 v 0 l -0.61736,-0.97013 -0.44097,-1.05834 -0.26459,-1.14653 -0.0882,-1.14652 v 0 -0.88195 0 z"
       id="path12" /><path
       style="fill:#ffffff;fill-opacity:1;fill-rule:nonzero;stroke:none;stroke-width:0.264583"
       d="m 177.81353,144.34411 v 0 l -1.32292,1.05834 -0.0882,0.0882 v 0 l -2.99861,2.11667 v 0 l -2.91042,2.11666 -0.0882,0.0882 v 0 l -2.11667,1.41111 -2.20486,1.32292 v 0 h 25.3118 v 0 l -0.79375,-0.61737 -2.46944,-1.67569 -1.85208,-1.14653 -2.38125,-1.41111 -2.82223,-1.5875 z"
       id="path14" /><path
       style="fill:#ffffff;fill-opacity:1;fill-rule:nonzero;stroke:none;stroke-width:0.264583"
       d="m 146.94548,134.9955 v 0 l -0.35278,1.32292 -0.26458,1.41111 v 0 l -0.17639,1.32292 -0.0882,1.23472 v 0 0.88194 l 0.0882,0.79375 0.17639,0.70556 0.17638,0.61736 0.26459,0.52917 0.26458,0.52916 0.35278,0.44097 0.44097,0.35278 v 0 l 0.52917,0.44097 0.52916,0.26459 0.52917,0.26458 0.61736,0.26458 0.61736,0.0882 0.70556,0.17639 1.41111,0.0882 v 0 l 1.23472,-0.0882 1.32292,-0.17639 v 0 l 1.32291,-0.26458 1.32292,-0.35278 v 0 l 1.23472,-0.44097 v 0 l 1.41111,-0.61737 v 0 l 4.49792,-2.38125 4.05695,-2.29305 v 0 l -4.58612,-2.02847 -4.93888,-2.11667 -5.46806,-2.20486 -5.99722,-2.29306 v 0 l -0.61736,1.76389 -0.61736,1.6757 z"
       id="path16" /><path
       style="fill:#ffffff;fill-opacity:1;fill-rule:nonzero;stroke:none;stroke-width:0.264583"
       d="m 66.953116,151.57606 v 0 l -0.352779,-0.44098 -0.352777,-0.61736 -0.264584,-0.70555 -0.08819,-0.88195 v 0 l 0.08819,-0.79375 v 0 l 0.08819,-0.52916 0.17639,-0.61736 v 0 l 0.440973,-1.05834 0.529166,-1.14653 0.705554,-0.97013 0.705557,-0.97014 v 0 l 0.705556,-0.88195 0.79375,-0.79375 0.79375,-0.70555 0.881944,-0.70556 v 0 l 0.79375,-0.70555 v 0 l 0.881943,-0.70556 0.35278,-0.35278 v 0 l 1.146527,-0.88194 1.322916,-0.79375 v 0 l 1.41111,-0.70556 1.499307,-0.52916 3.263193,-3.35139 v 0 l -1.5875,-0.0882 -1.23472,-0.17639 v 0 l -0.440973,-0.17639 -0.440973,-0.17638 -0.352777,-0.26459 -0.352777,-0.35278 -0.264583,-0.35277 -0.17639,-0.35278 -0.17639,-0.44097 v -0.52917 -0.17639 0 -0.52917 l 0.17639,-0.61736 v 0 l 0.17639,-0.44097 v -0.17639 l 0.08819,-0.17639 v 0 l 0.440973,-0.70555 0.440971,-0.70556 v 0 l 1.058333,-1.32291 v 0 l 0.79375,-0.97014 0.97014,-1.05834 0.97014,-0.97014 1.058333,-0.88194 v 0 l 1.146527,-0.88194 1.146527,-0.79375 1.234723,-0.70556 1.234723,-0.61736 v 0 l 1.058333,-0.52917 1.146527,-0.26458 v 0 l 1.146527,-0.26458 1.146529,-0.0882 v 0 l 1.146527,0.0882 h 0.97014 l 0.705554,0.17638 0.617363,0.17639 v 0 l 0.529166,0.17639 0.440971,0.26459 0.264583,0.26458 0.264584,0.26458 0.881946,-0.79375 v 0 l -9.70139,-2.29305 -10.31875,-2.29306 v 0 l 0.08819,1.5875 v 0 l -0.08819,1.76389 -0.17639,1.67569 -0.264583,1.6757 -0.44097,1.5875 -0.529167,1.5875 -0.705556,1.5875 -0.79375,1.4993 -0.97014,1.41112 v 0 l -0.970137,1.32291 -0.97014,1.32292 -1.058333,1.23472 -1.146527,1.23472 -1.14653,1.14653 -1.146527,1.05833 -1.234723,1.05834 -1.23472,0.97014 v 0 l -1.94028,1.41111 -1.940277,1.23472 -2.028473,1.23472 -2.116666,1.14653 v 0 l -2.116667,1.05833 -2.116667,0.97014 -2.20486,0.88195 -2.116666,0.79375 v 0 l -2.822223,0.97014 -2.822221,0.88194 v 0 l -1.5875,0.61736 -1.499306,0.70556 -1.411111,0.61736 -1.234723,0.79375 -1.146527,0.79375 -0.881945,0.79375 -0.440972,0.44097 -0.352778,0.52917 -0.264583,0.44097 -0.176389,0.52917 v 0 H 68.98158 v 0 l -0.705554,-0.17639 -0.529167,-0.26459 -0.440973,-0.26458 z"
       id="path18" /><path
       style="fill:#ffffff;fill-opacity:1;fill-rule:nonzero;stroke:none;stroke-width:0.264583"
       d="m 68.540616,116.21008 0.08819,-0.17638 v 0 l 0.08819,-0.79375 v 0 l 0.0882,-0.88195 v 0 l -0.0882,-0.97014 -0.08819,-0.79375 -0.264584,-0.79375 -0.264583,-0.70555 -0.440973,-0.61736 -0.440971,-0.52917 -0.617362,-0.52917 -0.617361,-0.44097 v 0 l -1.852083,-0.88194 -1.852083,-0.70556 -2.028473,-0.61736 -2.028471,-0.44097 v 0 l -4.321529,-0.44097 v 0 l -3.704167,-0.26459 v 0 H 49.7552 v 0 l -0.17639,0.61736 -0.264583,0.61736 v 0 l -0.352777,0.79375 -0.440973,0.79375 v 0 l -0.617361,0.70556 -0.79375,0.70555 -4.850696,6.4382 v 0 l 0.705557,1.14653 0.79375,1.05833 0.79375,1.05833 0.79375,0.97014 1.675693,1.85209 1.852083,1.67569 1.76389,1.5875 1.852084,1.49931 3.351389,2.73402 v 0 l 2.116667,-1.05833 2.116667,-1.23472 v 0 l 1.763887,-1.14653 1.5875,-1.23472 1.322916,-1.32292 1.14653,-1.41111 0.970137,-1.41111 0.79375,-1.49931 0.529167,-1.67569 z"
       id="path20" /><path
       style="fill:#ffffff;fill-opacity:1;fill-rule:nonzero;stroke:none;stroke-width:0.264583"
       d="m 44.63992,90.457308 v 0 l 1.234723,-0.176389 h 1.322917 v 0 l 2.469443,-0.08819 v 0 l 1.94028,0.08819 1.852083,0.08819 1.852084,0.08819 1.763887,0.176389 1.763889,0.264583 1.675694,0.352778 1.675696,0.352777 1.675694,0.440973 v 0 l 1.5875,0.529166 1.41111,0.529167 1.322917,0.705555 1.234723,0.705556 1.146527,0.705555 1.058333,0.881945 0.881946,0.881944 0.79375,1.058334 v 0 l 1.852083,0.176388 v 0 l 2.557637,0.79375 2.116667,0.79375 1.675696,0.705551 1.322917,0.61737 2.38125,1.14652 1.146527,0.61736 1.322916,0.52917 v 0 l 0.264584,-2.02847 0.08819,-1.940278 -0.08819,-1.852084 -0.264584,-1.675694 -0.352776,-1.5875 -0.440974,-1.499305 -0.61736,-1.322917 -0.705556,-1.234722 -0.79375,-1.146528 -0.79375,-1.058333 -0.97014,-0.970139 -0.970137,-0.970139 -1.058333,-0.79375 -1.058334,-0.705556 -1.146529,-0.617361 -1.146527,-0.617361 -1.146527,-0.529167 -1.14653,-0.440972 -2.20486,-0.705555 -2.20486,-0.529167 -1.852083,-0.352778 -1.675696,-0.264583 -1.234721,-0.08819 -1.146529,-0.08819 v 0 h -0.705554 l -1.76389,0.176389 -1.322917,0.08819 -1.41111,0.264584 -1.675696,0.264583 -1.675694,0.440972 -1.852083,0.529167 -1.852083,0.705555 -1.852083,0.79375 -1.852084,0.970139 -1.852083,1.234723 -0.79375,0.617361 -0.881944,0.705555 -0.79375,0.79375 -0.79375,0.79375 -0.79375,0.881945 -0.617362,0.970139 v 0 z"
       id="path22" /><path
       style="fill:#ffffff;fill-opacity:1;fill-rule:nonzero;stroke:none;stroke-width:0.264583"
       d="m 32.821866,114.09342 v 0 l 0.264583,-2.73403 v 0 l -0.705556,0.26458 -1.411111,0.44098 h -0.08819 v 0 l -2.469445,0.52916 v 0 l -2.293055,0.70556 h -0.08819 v 0 l -2.116667,0.61736 v 0 l -2.028472,0.61736 v 0 l -1.852084,0.52917 v 0 l -0.176388,0.0882 v 0 l -1.940278,18.43264 v 0 l 0.705555,-1.14653 0.79375,-1.05833 z"
       id="path24" /><path
       style="fill:#ffffff;fill-opacity:1;fill-rule:nonzero;stroke:none;stroke-width:0.264583"
       d="m 30.52881,136.31842 v 0 l 0.529167,-5.02709 -1.499306,2.11667 v 0 l -0.617361,0.88195 -0.264583,0.52916 v 0 l -0.176389,0.52917 v 0.35278 0.0882 0 0 0 l 0.176389,0.0882 v 0 l 0.881944,0.26458 z"
       id="path26" /><path
       style="fill:#ffffff;fill-opacity:1;fill-rule:nonzero;stroke:none;stroke-width:0.264583"
       d="m 28.323949,148.93022 v 0 h -0.79375 v 0 l -1.763889,-0.0882 -1.675694,-0.0882 -1.5875,-0.17638 -1.5875,-0.26459 v 0 l -1.499306,-0.35278 -0.617361,-0.17638 -0.617361,-0.35278 -0.440972,-0.26459 -0.440972,-0.35277 -0.440973,-0.35278 -0.352777,-0.44097 v 0 0.61736 l 0.08819,0.61736 0.176389,0.52917 0.08819,0.52916 0.264584,0.52917 0.264583,0.44097 0.617361,0.88195 0.79375,0.70555 0.881945,0.61736 0.970139,0.52917 0.970138,0.26458 1.058334,0.17639 h 1.058333 l 1.058333,-0.17639 1.058334,-0.26458 0.881944,-0.52917 0.440972,-0.26458 0.440973,-0.44097 0.352777,-0.35278 0.352778,-0.44097 0.264583,-0.52917 0.264584,-0.52917 v 0 z"
       id="path28" /><path
       style="fill:#ffffff;fill-opacity:1;fill-rule:nonzero;stroke:none;stroke-width:0.264583"
       d="m 42.523254,104.39203 v 0 H 42.25867 v 0 l -2.20486,0.26458 -2.204861,0.26459 -2.116667,0.44097 -2.028472,0.35278 v 0 l -1.940278,0.52916 -1.852083,0.52917 -1.5875,0.52917 -1.411111,0.61736 v 0 l 1.499305,-0.0882 v 0 h 1.234723 v 0 h 1.322916 l 0.970139,0.0882 0.79375,0.17639 0.440972,0.26458 v 0 l 0.264584,0.26458 v 0.17639 0.0882 l -0.264584,0.35277 -0.440972,0.26459 v 0 l -0.352778,0.26458 -0.529166,0.17639 v 0 l -1.234723,0.44097 v 0 l -1.411111,0.26458 -1.234722,0.26459 v 0 l -2.469444,0.70555 v 0 l -2.116667,0.61736 v 0 l -1.940277,0.61737 v 0 l -1.763889,0.52916 v 0 l -0.79375,0.0882 -0.617361,0.0882 v 0 l -0.79375,-0.0882 -0.705556,-0.17639 -0.529167,-0.35278 -0.352777,-0.44097 v 0 l -0.264584,-0.52917 -0.264583,-0.61736 -0.176389,-0.70556 v -0.70555 0 -1.05833 0 l 0.176389,-1.23473 v 0 l 0.440972,-1.5875 v 0 l 0.529167,-1.4993 v 0 l 0.440972,-1.23472 v 0 l 0.352778,-0.88195 v 0 l 0.79375,-1.05833 0.970139,-0.97014 1.058333,-0.881945 1.322917,-0.881944 1.411111,-0.881945 1.5875,-0.79375 1.675694,-0.705555 1.940278,-0.705556 v 0 l 1.940278,-0.705555 2.028472,-0.529167 2.116666,-0.529167 2.116667,-0.440972 2.116667,-0.440972 2.116666,-0.264583 2.204861,-0.264584 2.293056,-0.176389 v 0 l 1.234723,-0.176388 h 1.146527 v 0 l 2.469443,-0.08819 v 0 l 1.852084,0.08819 h 1.76389 l 1.852083,0.176388 1.675693,0.176389 1.675697,0.264584 1.675693,0.352777 1.675694,0.352778 1.499306,0.352778 v 0 l 1.499306,0.529167 1.411111,0.529166 1.322916,0.617361 1.146527,0.705556 0.97014,0.705555 0.97014,0.79375 0.79375,0.881945 0.61736,0.970139 v 0 l 1.234723,1.852079 1.058333,1.85209 0.79375,1.85208 0.705554,1.76389 v 0 l 0.440973,1.76389 0.440973,1.67569 0.176387,1.6757 0.0882,1.67569 v 0 l -0.0882,1.5875 -0.08819,1.5875 -0.264583,1.49931 -0.440974,1.4993 -0.529166,1.49931 -0.61736,1.41111 -0.705557,1.32292 -0.881943,1.41111 v 0 l -0.97014,1.23472 -0.970137,1.23472 -0.97014,1.23472 -1.058333,1.14653 -1.146527,1.05833 -1.058334,1.05834 -1.234723,0.97014 -1.146527,0.97014 v 0 l -1.852083,1.32291 -1.852083,1.32292 -2.028473,1.14653 -2.028473,1.05833 v 0 l -2.028471,1.05833 -2.116666,0.88195 -2.116667,0.88194 -2.116667,0.88195 v 0 l -3.439583,1.14652 -3.35139,0.97014 v 0 l -3.351389,0.79375 -3.086805,0.61736 v 0 l -1.5875,0.26459 -1.763889,0.26458 v 0 l -1.852083,0.17639 -2.028472,0.0882 v 0 H 27.88298 v 0 h -0.352778 v 0 h -1.675694 l -1.5875,-0.17638 -1.5875,-0.17639 -1.411111,-0.17639 v 0 l -1.322917,-0.35278 -0.529167,-0.17639 -0.529166,-0.26458 -0.352778,-0.26459 -0.352778,-0.26458 -0.264583,-0.35278 -0.176389,-0.35277 v 0 l -0.264583,-0.70556 -0.0882,-0.79375 v 0 l -0.264583,-1.49931 v 0 l 0.08819,-1.05833 0.176389,-1.05833 0.264583,-1.14653 0.352778,-1.05833 v 0 l 0.529167,-1.14653 0.617361,-1.23472 0.79375,-1.23473 0.881944,-1.23472 21.960416,-28.22222 v 0 z m 5.732639,-0.79375 v 0 L 48.1677,104.833 v 0 l -0.17639,0.61736 -0.264583,0.61736 v 0 l -0.352777,0.70556 -0.35278,0.70555 v 0 l -0.529166,0.61737 -0.617361,0.52916 -17.815277,23.72431 v 0 l -0.617361,0.97014 -0.440973,0.88194 v 0 l -0.176388,0.79375 -0.08819,0.70556 v 0 0.61736 l 0.264583,0.44097 0.440973,0.44097 0.617361,0.35278 v 0 l 0.705555,0.17639 0.79375,0.17639 0.970139,0.17639 h 0.970139 v 0 h 1.146528 l 1.146527,-0.0882 v 0 l 2.293056,-0.26458 v 0 l 1.234722,-0.26458 v 0 l 1.146528,-0.17639 v 0 l 2.557639,-0.52917 v 0 l 2.469444,-0.44097 v 0 l 2.293057,-0.61736 2.293053,-0.70556 2.293057,-0.79375 2.20486,-0.88194 2.204863,-0.97014 2.116667,-0.97014 2.02847,-1.14653 2.116667,-1.14653 v 0 l 1.852083,-1.32291 1.76389,-1.32292 1.41111,-1.41111 0.705556,-0.79375 0.617361,-0.79375 0.529166,-0.79375 0.529167,-0.79375 0.440973,-0.79375 0.352777,-0.88195 0.352779,-0.88194 0.264584,-0.88194 0.264583,-0.97014 0.176387,-0.97014 v 0 l 0.17639,-1.05834 v 0 l 0.08819,-1.05833 v 0 l -0.08819,-1.23472 -0.17639,-1.05833 -0.264583,-0.97014 -0.440971,-0.88195 -0.529166,-0.79375 -0.617363,-0.79375 -0.79375,-0.61736 -0.881944,-0.52917 v 0 l -1.940277,-0.97013 -2.028473,-0.79375 -2.116666,-0.61736 -2.20486,-0.44098 v 0 l -4.497917,-0.52916 v 0 l -3.792363,-0.26459 v 0 l -1.058333,-0.0882 v 0 l -0.881944,-0.0882 z"
       id="path30" /><path
       style="fill:#ffffff;fill-opacity:1;fill-rule:nonzero;stroke:none;stroke-width:0.264583"
       d="m 94.117003,129.88022 -16.49236,15.875 v 0 l -1.322917,1.23473 -1.234723,1.05833 -1.146527,0.88194 -1.058333,0.70556 v 0 l -0.97014,0.52917 -0.79375,0.35277 -0.79375,0.17639 -0.705554,0.0882 v 0 h -0.440973 l -0.352777,-0.0882 -0.352779,-0.17639 -0.264583,-0.17639 v 0 l -0.264584,-0.35277 -0.08819,-0.26459 -0.08819,-0.35277 -0.0882,-0.44098 v 0 l 0.0882,-0.61736 v 0 l 0.176387,-0.70555 v 0 l 0.35278,-0.97014 0.529166,-0.97014 0.529167,-0.88195 0.61736,-0.79375 v 0 l 1.411111,-1.5875 1.499306,-1.32291 v 0 l 0.881943,-0.70556 v 0 l 0.881947,-0.70555 v 0 l 0.176387,-0.17639 v 0 l 0.17639,-0.17639 v 0 l 1.058333,-0.79375 1.146527,-0.70556 v 0 l 0.705556,-0.35277 0.705557,-0.35278 0.705553,-0.17639 0.79375,-0.26458 6.70278,-6.79098 v 0 l -1.14653,0.0882 v 0 H 84.59201 v 0 h -0.970137 v 0 H 82.73992 v 0 h -1.499304 l -1.058333,-0.17639 v 0 l -0.440973,-0.17639 -0.264584,-0.26458 -0.17639,-0.26459 -0.08819,-0.44097 v 0 l 0.08819,-0.52917 v 0 l 0.17639,-0.61736 v 0 l 0.352777,-0.61736 0.35278,-0.52916 v 0 l 0.970137,-1.23473 v 0 l 0.79375,-0.97014 0.881946,-0.88194 0.881943,-0.97014 1.058334,-0.88194 v 0 l 1.058333,-0.79375 1.058333,-0.79375 1.058334,-0.61736 1.146527,-0.52917 v 0 l 0.970139,-0.44097 0.97014,-0.26459 v 0 l 0.970137,-0.17639 0.881946,-0.0882 v 0 l 1.763888,0.0882 0.617362,0.0882 0.529167,0.0882 v 0 l 0.352777,0.17639 0.17639,0.17639 0.176387,0.17639 v 0.17639 0 l -0.08819,0.17639 -0.08819,0.0882 -0.529167,0.35278 v 0 l -0.79375,0.26458 H 94.11701 v 0 l -1.058333,0.17639 -0.881944,0.17639 v 0 l -0.61736,0.17639 -0.35278,0.17639 v 0 l -0.176387,0.17639 v 0.17639 l 0.08819,0.0882 0.264583,0.17639 v 0 l 0.264583,0.0882 0.440973,0.0882 1.058334,0.0882 v 0 l 1.5875,-0.0882 v 0 l 0.881943,-0.0882 0.97014,-0.17638 14.022918,-12.25903 v 0 l 1.85208,-1.41111 2.73403,-2.20486 v 0 l 3.43958,-2.64584 3.79236,-2.822219 v 0 l 0.88195,-0.79375 1.05833,-0.705556 v 0 l 2.02847,-1.411111 v 0 l 0.97014,-0.705556 v 0 l 0.97014,-0.705555 v 0 l 0.97014,-0.617361 0.88194,-0.440972 0.79375,-0.440972 0.79375,-0.264584 v 0 l 1.41111,-0.440972 0.61736,-0.08819 h 0.61737 v 0 h 0.70555 l 0.70556,0.176388 0.52916,0.264584 0.44098,0.352778 v 0 l 0.35277,0.352777 0.26459,0.529167 0.17639,0.529167 v 0.617361 0 0.529166 l -0.0882,0.617361 v 0 l -0.26458,0.705556 -0.35278,0.705555 -11.64167,20.725688 3.70417,-0.61736 3.08681,0.61736 v 0 l -0.97014,1.32292 v 0 l -0.88195,1.41111 v 0 l -0.61736,0.97014 v 0 l -0.61736,0.97014 v 0 l -1.32292,2.46944 v 0 l -1.14652,2.02847 -6.08542,0.52917 -4.32153,7.32014 v 0 l -0.44097,1.14653 v 0 l -0.17639,0.44097 -0.0882,0.44097 v 0 l 0.0882,0.26459 0.17639,0.26458 v 0 l 0.26458,0.0882 0.26459,0.0882 v 0 l 0.52916,-0.0882 0.70556,-0.17639 0.79375,-0.35277 0.88194,-0.52917 v 0 l 1.05834,-0.61736 1.05833,-0.79375 1.14653,-0.88195 1.14652,-0.97013 1.76389,2.29305 v 0 l -2.73402,2.64583 -2.46945,2.20487 -1.14653,0.97013 -1.14652,0.79375 -1.05834,0.70556 -0.97014,0.61736 v 0 l -1.94027,0.97014 -1.6757,0.61736 -0.79375,0.26458 -0.70555,0.17639 -0.70556,0.0882 -0.61736,0.0882 v 0 l -1.05833,-0.0882 -0.88195,-0.26459 -0.44097,-0.26458 -0.35278,-0.17639 -0.35278,-0.35278 -0.26458,-0.26458 v 0 l -0.44097,-0.70555 -0.35278,-0.79375 -0.17639,-0.88195 -0.0882,-0.88194 v 0 -0.61736 0 l 0.0882,-0.52917 v 0 l 0.35278,-1.23472 v 0 l 0.35278,-1.14653 4.93889,-9.26042 z m 21.960417,-10.93611 11.02431,-17.81527 -22.57778,18.9618 z"
       id="path32" /><path
       style="fill:#ffffff;fill-opacity:1;fill-rule:nonzero;stroke:none;stroke-width:0.264583"
       d="m 170.49339,115.76911 v 0 l 0.79375,-0.26458 0.79375,-0.44097 v 0 l 0.88195,-0.61736 0.79375,-0.79375 v 0 l 1.67569,-1.85209 v 0 l 1.5875,-1.94028 v 0 l 1.23472,-1.67569 1.05834,-1.4993 v 0 l 0.88194,-1.41112 0.70556,-0.97013 v 0 l 0.79375,-1.14653 0.52916,-1.05834 v 0 l 0.35278,-1.05833 0.0882,-0.88194 v 0 -0.352782 l -0.0882,-0.264583 -0.0882,-0.352778 -0.17639,-0.264583 v 0 l -0.26459,-0.176389 -0.35277,-0.176389 -0.35278,-0.08819 h -0.52917 v 0 l -0.88194,0.08819 -1.14653,0.264584 v 0 l -1.32292,0.440972 -1.41111,0.793748 v 0 l -1.67569,0.88195 -1.5875,0.88194 -1.5875,1.05833 -1.5875,1.14653 v 0 l -3.08681,2.46945 -2.82222,2.64583 v 0 l -3.35139,3.175 -2.91042,2.99861 v 0 l -3.96874,4.23333 v 0 l -0.79375,0.97014 -1.05834,1.32292 v 0 l -1.14653,1.5875 -1.14652,1.94028 v 0 l -1.14653,2.02847 -1.14653,2.29305 v 0 l -0.97014,2.38125 -0.79375,2.38125 v 0 l -0.35278,1.41112 -0.35277,1.4993 v 0 l -0.17639,1.49931 -0.0882,1.41111 v 0 1.05833 l 0.17639,0.97014 0.17639,0.97014 0.26458,0.79375 0.35278,0.70555 0.35278,0.70556 0.52917,0.52917 0.61736,0.52916 v 0 l 0.61736,0.44098 0.61736,0.44097 0.70556,0.26458 0.70555,0.26458 0.79375,0.26459 0.79375,0.0882 0.88195,0.17639 h 0.88194 v 0 l 1.41111,-0.0882 1.41111,-0.17639 v 0 l 1.41111,-0.26459 1.49931,-0.44097 v 0 l 1.41111,-0.52916 v 0 l 1.41111,-0.61737 v 0 l 5.46806,-2.82222 4.6743,-2.73403 2.02847,-1.32291 1.94028,-1.23472 1.67569,-1.14653 1.5875,-1.23472 v 0 l 4.67431,-3.79237 1.49931,-1.23472 0.97013,-0.88194 v 0 l 0.26459,0.35278 0.26458,0.44097 v 0 l 0.17639,0.44097 v 0.52917 0 0.52916 l -0.17639,0.61736 -0.17639,0.52917 -0.35278,0.61736 v 0 l -0.79375,1.23472 -1.05833,1.23473 v 0 l -0.79375,0.97014 -0.88194,0.88194 v 0 l -1.94028,1.67569 v 0 l -1.41111,1.14653 -1.32292,1.05834 v 0 l -2.20486,1.85208 v 0 l -3.0868,2.11667 v 0 l -2.91042,2.11666 v 0 l -2.64583,1.76389 -2.64584,1.49931 -2.64583,1.4993 -2.82222,1.23472 v 0 l -1.32292,0.61737 -1.49931,0.44097 -1.4993,0.44097 -1.5875,0.35278 -1.5875,0.26458 -1.67569,0.17639 -1.6757,0.17639 h -1.76389 v 0 l -1.76389,-0.0882 -1.67569,-0.26458 -1.49931,-0.35278 -1.41111,-0.44097 -1.23472,-0.61736 -1.05833,-0.61736 -0.97014,-0.88195 -0.79375,-0.88194 v 0 l -0.70556,-0.97014 -0.61736,-1.05833 -0.52917,-0.97014 -0.44097,-1.05833 -0.44097,-1.05834 -0.26458,-1.05833 -0.26459,-1.14653 -0.17639,-1.14653 v 0 -0.97014 0 -0.97013 0 -1.32292 l 0.0882,-1.23472 0.17639,-1.23473 0.17639,-1.14652 v 0 l 0.52916,-2.11667 0.44098,-1.67569 v 0 l 0.17638,-0.26459 v 0 l 0.0882,-0.17639 v 0 l 0.97014,-2.38125 1.14653,-2.20486 1.14652,-2.20486 1.23473,-2.02847 1.23472,-2.02847 1.41111,-1.85209 1.41111,-1.76389 1.49931,-1.67569 v 0 l 1.4993,-1.67569 1.6757,-1.5875 1.67569,-1.5875 1.76389,-1.5875 1.76389,-1.5875 1.94028,-1.5875 1.94027,-1.49931 1.94028,-1.4993 v 0 l 4.23333,-2.99862 v 0 l 4.49792,-3.086802 v 0 l 1.94028,-1.146527 2.02847,-1.146528 v 0 l 2.20486,-0.970139 2.11667,-0.881944 v 0 l 1.76389,-0.529167 1.76388,-0.440972 v 0 l 1.6757,-0.352778 1.5875,-0.08819 v 0 h 0.79375 l 0.79375,0.08819 0.70555,0.176389 0.70556,0.176389 0.61736,0.264583 0.61736,0.352778 0.61736,0.352778 0.52917,0.440972 v 0 l 0.44097,0.529167 0.44097,0.617361 0.44098,0.617361 0.26458,0.79375 0.26458,0.881944 0.0882,0.881945 0.17639,1.058333 v 1.058337 0 0.44097 0 0.44097 0 l -0.0882,1.14653 -0.26458,1.23472 -0.35278,1.32292 -0.44097,1.32291 v 0 l -0.61736,1.32292 -0.70556,1.32292 -0.70555,1.41111 -0.88195,1.32291 v 0 l -1.14653,1.6757 -1.14652,1.67569 -1.32292,1.5875 -1.41111,1.6757 v 0 l -1.41111,1.5875 -1.49931,1.4993 -1.4993,1.41111 -1.49931,1.41112 v 0 l -1.4993,1.32291 -1.5875,1.23472 -1.49931,1.05834 -1.4993,0.97014 v 0 l -1.41112,0.88194 -1.41111,0.70556 -1.23472,0.52916 -1.05833,0.35278 v 0 l -1.85209,0.44097 v 0 l -0.79375,0.17639 -0.70555,0.0882 v 0 l -0.97014,-0.0882 -0.79375,-0.17639 -0.61736,-0.35277 -0.52917,-0.44098 v 0 l -0.44097,-0.52916 -0.35278,-0.61736 -0.17639,-0.61737 v -0.70555 0 l 0.0882,-1.14653 0.35278,-1.14653 v 0 l 0.17638,-0.52916 0.35278,-0.61736 0.79375,-1.14653 v 0 l 1.05834,-1.23472 v 0 l 0.61736,-0.61737 0.61736,-0.52916 v 0 l 0.79375,-0.61736 0.97014,-0.88195 v 0 l 2.29305,-2.20486 v 0 l 0.35278,-0.44097 v 0 l 0.52917,-0.44097 v 0 l 1.32291,-1.14653 1.32292,-1.05833 v 0 l 0.61736,-0.44098 0.52917,-0.26458 0.52916,-0.26458 h 0.35278 v 0 h 0.35278 l 0.26458,0.17639 v 0 l 0.17639,0.35277 v 0.52917 0 0.26458 0 0.0882 0 0.17639 z"
       id="path34" /></g></svg>
